<svg xmlns="http://www.w3.org/2000/svg" viewBox="0 0 413.16 541.36"><defs><style>.cls-1{fill:#ddd;}.cls-2{fill:#2d2d2d;}</style></defs><g id="Layer_2" data-name="Layer 2"><g id="Layer_1-2" data-name="Layer 1"><path class="cls-1" d="M368.43,108.36a29.92,29.92,0,0,1,9.65-22q-1.4-2.89-2.9-5.68C358,88,341.88,65.5,354.07,51.6q-22.36-23.29-56.73-36.19c-.89,14-22.07,7-14.41-4.76Q248.19.53,202.9,0c14.83,9.34,7.41,34.53-10.47,33.89C175,34.55,167.2,10.24,181.32.51a267.36,267.36,0,0,0-35.11,4.33c25.29,14.84,14,56.1-15.78,55.52-21.54.52-36.68-23.66-27.15-42.78q-8,3.3-15.38,7.18c3.06,8-8.18,14.42-13.54,7.87C35.06,57.88,10.77,96.39,7.64,143.14c43.43-8.54,50.65,58.26,6.42,59.21.67,2.16,1.37,4.28,2.14,6.34,8.6-2.69,14.07,9.91,6.43,14.42,15.09,28.43,40.28,47,71.07,60.77,14.44-34.16,66.5-16.42,56.56,19.76,7.86,2.23,15.87,4.37,24,6.48a18.63,18.63,0,0,1,18.18-22.33c15.48-.52,24.41,19.38,14.09,30.63,35.85,9.32,60.88,16.65,76,28.72,14.46-25.9,56.43-14.95,55.86,15.22.3,19.51-19.32,34.35-38,28.91-1,25.91-16.49,45.32-42.3,55.5,16.76,18.15,2.38,50.44-22.71,49.59-21,.47-36.14-22.55-27.66-41.64-24-.4-43.7-5.24-58.89-14.39a18.59,18.59,0,0,1-18.45,20.59c-23.87-.06-24.48-36.21-.67-37.09-7.65-9.44-13-21-16.08-34.65a30.06,30.06,0,0,1-33.25-29.73H51.78c4.45,14.15-19.3,14.14-14.84,0H0c0,.22,0,.44,0,.67C26.67,356,30,396.76,3,396.9c3.63,21.77,10.54,41.21,20.42,58.23C43.79,436.44,69.09,470,45.63,484.46c16.09,16.55,36.13,29.6,59.65,39-4.75-18.51,10-37.37,29.15-37.1,25.89-.91,39.9,33.21,21.54,50.86a336.17,336.17,0,0,0,61,4c-5.34-4.52-1.75-14.12,5.38-13.87,6.82-.24,10.59,8.68,5.83,13.42,63.23-3.67,114.24-26.1,146.31-62.07-18.3,4-36.3-10.61-36.07-29.38-.23-35.68,52.68-40.64,59.39-6,51.54-120.11-34-204.57-149.65-223.39,12.09,19-2.95,46.06-25.74,45.41-30.16.57-41.12-41.39-15.23-55.85-64.64-17.36-90-31.56-90-67.62,0-20.25,11.73-36.76,31.46-46.65-2.4-8.81,10.66-13.71,14.74-5.72a118.42,118.42,0,0,1,31.44-4.36c6.72-15.35,31.58-12.59,34.69,3.94,16.2,4.31,29.07,12.07,38.46,22.94,23.85-15,42.44,23.61,16.08,33a113.53,113.53,0,0,1,2.67,25.2h16.8c-1.61-41.91,61.49-41.89,59.87,0H395.1a241.15,241.15,0,0,0-2.09-32.4A30,30,0,0,1,368.43,108.36Zm-316.07,1c-10.36.15-10.36-16.12,0-16C62.72,93.24,62.72,109.51,52.36,109.36Zm250,312c10.36-.15,10.36,16.12,0,16C292,437.51,292,421.24,302.36,421.39Zm-4.93,76.53c-24.41-.42-24.4-36.71,0-37.13C321.83,461.21,321.83,497.51,297.43,497.92ZM406.34,378.37c.15,10.36-16.12,10.36-16,0C390.23,368,406.49,368,406.34,378.37Zm-11-49c10.36-.15,10.36,16.12,0,16C385,345.51,385,329.24,395.36,329.39Zm-32,0c10.36-.15,10.36,16.12,0,16C353,345.51,353,329.24,363.36,329.39Zm-17,49c10.36-.15,10.36,16.12,0,16C336,394.51,336,378.24,346.36,378.39Zm-57-75c-10.36.15-10.36-16.12,0-16C299.72,287.24,299.72,303.51,289.36,303.36Zm-4.93-67.57c24.4.42,24.4,36.72,0,37.13C260,272.5,260,236.21,284.43,235.79Zm-35.07,62.6c10.36-.15,10.36,16.12,0,16C239,314.51,239,298.24,249.36,298.39Zm-97.93-81.6c24.4.42,24.4,36.72,0,37.13C127,253.5,127,217.21,151.43,216.79ZM96.36,162.36c-10.36.15-10.36-16.12,0-16C106.72,146.24,106.72,162.51,96.36,162.36Zm4.07-45.44c-24.41-.42-24.4-36.71,0-37.13C124.83,80.21,124.83,116.51,100.43,116.92Zm77.93-56.56c-10.36.15-10.36-16.12,0-16C188.72,44.24,188.72,60.51,178.36,60.36Zm65,11c-10.36.15-10.36-16.12,0-16C253.72,55.24,253.72,71.51,243.36,71.36Zm60.07,22c-39.44-.68-39.43-59.34,0-60C342.86,34,342.86,92.69,303.43,93.36Zm42.93,23c-10.36.15-10.36-16.12,0-16C356.72,100.24,356.72,116.51,346.36,116.36Z"/><path class="cls-2" d="M44.43,172.36c.25-19.05-18.35-33.74-36.79-29.22C6.26,163.38,8.82,186,14.06,202.35A30,30,0,0,0,44.43,172.36Z"/><path class="cls-2" d="M121.43,265.36A30,30,0,0,0,93.7,283.88c17.35,7.78,36.47,14.06,56.56,19.76C155.93,284.92,141.06,265,121.43,265.36Z"/><path class="cls-2" d="M192.43,235.36c3.58,50.87,78.8,29.93,55.74-15.41-13.24-3.39-28.24-7-41-10.44A30,30,0,0,0,192.43,235.36Z"/><path class="cls-2" d="M338.43,362.36c.56-30.18-41.41-41.12-55.86-15.22,12.7,9.75,18.73,24.82,17.87,44.13C319.11,396.71,338.73,381.87,338.43,362.36Z"/><path class="cls-2" d="M110.43,389.36a31.7,31.7,0,0,0,3.25-.18,134.73,134.73,0,0,1-3.08-29.73H80.43A30,30,0,0,0,110.43,389.36Z"/><path class="cls-2" d="M235.43,496.36c25.09.85,39.47-31.44,22.71-49.59-13.75,5.5-31.94,8.42-50.37,8C199.29,473.81,214.39,496.83,235.43,496.36Z"/><path class="cls-2" d="M134.43,486.36c-19.17-.27-33.9,18.59-29.15,37.1A241.22,241.22,0,0,0,156,537.22C174.33,519.56,160.32,485.45,134.43,486.36Z"/><path class="cls-2" d="M368.43,419.36c-43.49,1.39-36.76,66.82,6.07,59.38a144.75,144.75,0,0,0,23.32-35.4A30,30,0,0,0,368.43,419.36Z"/><path class="cls-2" d="M303.43,33.36c-39.44.67-39.43,59.33,0,60C342.86,92.68,342.86,34,303.43,33.36Z"/><path class="cls-2" d="M130.43,60.36c29.83.57,41.06-40.69,15.78-55.52a221.66,221.66,0,0,0-42.93,12.74C93.75,36.7,108.89,60.88,130.43,60.36Z"/><path class="cls-2" d="M100.43,79.79c-24.41.42-24.4,36.72,0,37.13C124.83,116.5,124.83,80.21,100.43,79.79Z"/><path class="cls-2" d="M151.43,253.92c24.4-.42,24.4-36.71,0-37.13C127,217.21,127,253.51,151.43,253.92Z"/><path class="cls-2" d="M192.43,287.79a18.62,18.62,0,0,0-18.18,22.33c10.54,2.74,21.79,5.55,32.27,8.3C216.84,307.17,207.91,287.27,192.43,287.79Z"/><path class="cls-2" d="M284.43,272.92c24.4-.42,24.4-36.71,0-37.13C260,236.21,260,272.51,284.43,272.92Z"/><path class="cls-2" d="M297.43,460.79c-24.41.42-24.4,36.72,0,37.13C321.83,497.5,321.83,461.21,297.43,460.79Z"/><path class="cls-2" d="M111.86,442.36c.63,25.72,39.21,23.6,37-2a72.48,72.48,0,0,1-19.12-16.5A18.55,18.55,0,0,0,111.86,442.36Z"/><path class="cls-2" d="M55,468.36c.57-16.11-20.71-24.73-31.59-13.23a150.21,150.21,0,0,0,22.23,29.33A18.53,18.53,0,0,0,55,468.36Z"/><path class="cls-2" d="M22,378.36A18.6,18.6,0,0,0,0,360.12,227.26,227.26,0,0,0,3,396.9,18.54,18.54,0,0,0,22,378.36Z"/><path class="cls-2" d="M211.43,74.79a18.54,18.54,0,0,0-16.64,10.37,129.12,129.12,0,0,1,34.69,3.94A18.55,18.55,0,0,0,211.43,74.79Z"/><path class="cls-2" d="M173.86,15.36a18.56,18.56,0,0,0,18.57,18.56C210.3,34.56,217.73,9.36,202.9,0c-7.2-.1-14.55.06-21.58.48A18.5,18.5,0,0,0,173.86,15.36Z"/><path class="cls-2" d="M297,127.36c.45-14.6-17.4-23.81-29.05-15.32,7.75,9,13.14,20,16.08,33A18.57,18.57,0,0,0,297,127.36Z"/><path class="cls-2" d="M368.43,81.92a18.71,18.71,0,0,0,6.75-1.28,132.61,132.61,0,0,0-21.11-29C344.13,63,353.12,82.43,368.43,81.92Z"/><path class="cls-2" d="M333.43,138.36a30,30,0,0,0-29.94,31.9h59.87A30,30,0,0,0,333.43,138.36Z"/><path class="cls-2" d="M368.43,108.36A30,30,0,0,0,393,137.86q-3.88-28.67-14.93-51.54A29.92,29.92,0,0,0,368.43,108.36Z"/><path class="cls-2" d="M249.36,314.36c10.36.15,10.36-16.12,0-16C239,298.24,239,314.51,249.36,314.36Z"/><path class="cls-2" d="M289.36,287.39c-10.36-.15-10.36,16.12,0,16C299.72,303.51,299.72,287.24,289.36,287.39Z"/><path class="cls-2" d="M395.36,345.36c10.36.15,10.36-16.12,0-16C385,329.24,385,345.51,395.36,345.36Z"/><path class="cls-2" d="M346.36,394.36c10.36.15,10.36-16.12,0-16C336,378.24,336,394.51,346.36,394.36Z"/><path class="cls-2" d="M363.36,345.36c10.36.15,10.36-16.12,0-16C353,329.24,353,345.51,363.36,345.36Z"/><path class="cls-2" d="M302.36,437.36c10.36.15,10.36-16.12,0-16C292,421.24,292,437.51,302.36,437.36Z"/><path class="cls-2" d="M222.36,527.39c-7.13-.25-10.72,9.35-5.38,13.87q5.67-.12,11.21-.45C233,536.07,229.18,527.15,222.36,527.39Z"/><path class="cls-2" d="M44.36,370.36a8,8,0,0,0,7.42-10.91H36.94A8,8,0,0,0,44.36,370.36Z"/><path class="cls-2" d="M26.34,216.37a8,8,0,0,0-10.14-7.68,118,118,0,0,0,6.43,14.42A8,8,0,0,0,26.34,216.37Z"/><path class="cls-2" d="M80.36,35.36a8,8,0,0,0,7.54-10.6q-7,3.69-13.54,7.87A8,8,0,0,0,80.36,35.36Z"/><path class="cls-2" d="M156.36,85.39a8,8,0,0,0-7.75,9.85,86.88,86.88,0,0,1,14.74-5.72A8,8,0,0,0,156.36,85.39Z"/><path class="cls-2" d="M178.36,44.39c-10.36-.15-10.36,16.12,0,16C188.72,60.51,188.72,44.24,178.36,44.39Z"/><path class="cls-2" d="M52.36,93.39c-10.36-.15-10.36,16.12,0,16C62.72,109.51,62.72,93.24,52.36,93.39Z"/><path class="cls-2" d="M96.36,146.39c-10.36-.15-10.36,16.12,0,16C106.72,162.51,106.72,146.24,96.36,146.39Z"/><path class="cls-2" d="M390.38,378.37c-.15,10.36,16.11,10.36,16,0C406.49,368,390.22,368,390.38,378.37Z"/><path class="cls-2" d="M346.36,100.39c-10.36-.15-10.36,16.12,0,16C356.72,116.51,356.72,100.24,346.36,100.39Z"/><path class="cls-2" d="M289.36,23.36a8,8,0,0,0,8-7.95q-7-2.6-14.41-4.76C279,15.61,283,23.56,289.36,23.36Z"/><path class="cls-2" d="M243.36,55.39c-10.36-.15-10.36,16.12,0,16C253.72,71.51,253.72,55.24,243.36,55.39Z"/></g></g></svg>