<?xml version="1.0" encoding="UTF-8"?>
<svg width="515px" height="675px" viewBox="0 0 515 675" version="1.1" xmlns="http://www.w3.org/2000/svg" xmlns:xlink="http://www.w3.org/1999/xlink">
    <title>icon</title>
    <g id="icon" stroke="none" stroke-width="1" fill="none" fill-rule="evenodd">
        <g fill-rule="nonzero">
            <path d="M459.06378,135.37256 C459.066418,124.956745 463.426354,115.016996 471.08768,107.96056 C469.924747,105.559933 468.72028,103.20084 467.47428,100.88328 C446.068,110.004 425.98248,81.969 441.17122,64.6496 C422.597513,45.3033733 399.035653,30.27246 370.48564,19.55686 C369.3767,37.00086 342.98642,28.27886 352.53078,13.6259 C323.67342,5.21955333 290.434293,0.796253333 252.8134,0.356 C271.29158,11.99364 262.04626,43.38038 239.76778,42.58294 C218.05,43.4053 208.3312,13.11504 225.92472,0.99146 C211.239249,1.8220842 196.624913,3.62442184 182.17766,6.38664 C213.689,24.87728 199.62166,76.28724 162.51578,75.56456 C135.67694,76.21248 116.8125,46.0842 128.68688,22.26068 C122.041547,25.00188 115.65372,27.9839733 109.5234,31.20696 C113.33616,41.17496 99.33112,49.17428 92.65256,41.01298 C43.68476,72.47448 13.41942,120.45794 9.51944,178.70844 C63.63322,168.0676 72.62934,251.3004 17.51876,252.4841 C18.35358,255.17546 19.22578,257.81698 20.1852,260.38374 C30.9008,257.032 37.71642,272.7316 28.19698,278.35106 C46.99912,313.77484 78.38586,336.91306 116.7502,354.07048 C134.74244,311.50712 199.6092,333.61116 187.22396,378.69144 C197.01752,381.47002 206.99798,384.13646 217.12796,386.76552 C215.748074,379.95633 217.490665,372.887053 221.877128,367.499279 C226.263591,362.111506 232.832701,358.971746 239.78024,358.94234 C259.06832,358.29442 270.1951,383.08982 257.33638,397.10732 C302.00548,408.72004 333.19286,417.85322 352.03238,432.89244 C370.04954,400.62104 422.34416,414.26474 421.63394,451.85656 C422.00774,476.16602 397.56122,494.65666 374.28594,487.87842 C373.03994,520.16228 353.7394,544.34714 321.58014,557.03142 C342.4631,579.64632 324.54562,619.87966 293.28348,618.82056 C267.11748,619.40618 248.25304,590.72326 258.81912,566.93712 C228.91512,566.43872 204.36892,560.40808 185.44218,549.00718 C186.14903,555.539123 184.048719,562.063948 179.664214,566.957008 C175.279709,571.850068 169.023548,574.650976 162.45348,574.66232 C132.71146,574.58756 131.9514,529.54466 161.61866,528.44818 C152.08676,516.68594 145.42066,502.28218 141.58298,485.27428 C131.052022,486.398335 120.53744,483.011493 112.642396,475.952254 C104.747351,468.893016 100.209926,458.821327 100.15348,448.2307 L64.51788,448.2307 C70.06258,465.8616 40.47008,465.84914 46.02724,448.2307 L-5.05906428e-14,448.2307 C-5.05906428e-14,448.50482 -5.05906428e-14,448.77894 -5.05906428e-14,449.06552 C33.23082,443.932 37.38,494.71896 3.738,494.8934 C8.26098,522.01882 16.87084,546.24106 29.18132,567.44798 C54.56234,544.16024 86.08614,585.976 56.85498,603.99316 C76.90312,624.61446 101.87296,640.87476 131.17888,652.58716 C125.26038,629.5237 143.63888,606.02414 167.49978,606.36056 C199.75872,605.2267 217.21518,647.74022 194.33862,669.73212 C219.470008,673.698345 244.910499,675.366573 270.34462,674.71612 C263.69098,669.0842 268.16412,657.1226 277.0481,657.4341 C285.54582,657.13506 290.24324,668.24938 284.31228,674.15542 C363.09686,669.5826 426.65532,641.63482 466.61454,596.8162 C443.81274,601.8002 421.38474,583.59614 421.67132,560.20872 C421.38474,515.75144 487.3106,509.57128 495.67126,552.73272 C559.8901,403.07566 453.30726,297.8385 309.20736,274.38878 C324.2715,298.06278 305.53166,331.77954 277.13532,330.96964 C239.55596,331.67986 225.8998,279.3977 258.15874,261.38054 C177.6173,239.74998 146.01874,222.05678 146.01874,177.12602 C146.01874,151.89452 160.63432,131.32306 185.2179,119.00012 C182.2275,108.02286 198.50026,101.91746 203.58394,111.873 C216.339067,108.312402 229.515479,106.485138 242.75818,106.44044 C251.1313,87.31434 282.10686,90.7533 285.98192,111.34968 C306.16712,116.71994 322.20314,126.3889 333.90308,139.93292 C363.62018,121.24292 386.78332,169.35098 353.93876,181.05092 C356.215989,191.360373 357.331879,201.892365 357.26558,212.45012 L378.19838,212.45012 C376.19232,160.23026 454.81492,160.25518 452.7964,212.45012 L492.2946,212.45012 C492.334449,198.950099 491.464431,185.462739 489.69046,172.07972 C471.968985,168.824495 459.091611,153.390506 459.06378,135.37256 Z M65.24056,136.61856 C52.332,136.80546 52.332,116.53304 65.24056,116.68256 C78.14912,116.53304 78.14912,136.80546 65.24056,136.61856 L65.24056,136.61856 Z M376.74056,525.37056 C389.64912,525.18366 389.64912,545.45608 376.74056,545.30656 C363.832,545.49346 363.832,525.22104 376.74056,525.40794 L376.74056,525.37056 Z M370.59778,620.72694 C340.18292,620.20362 340.19538,574.98628 370.59778,574.46296 C401.00018,575.02366 401.00018,620.25346 370.59778,620.76432 L370.59778,620.72694 Z M506.29964,471.80502 C506.48654,484.71358 486.21412,484.71358 486.36364,471.80502 C486.22658,458.884 506.48654,458.884 506.29964,471.80502 Z M492.59364,410.75102 C505.5022,410.56412 505.5022,430.83654 492.59364,430.68702 C479.71,430.86146 479.71,410.58904 492.61856,410.77594 L492.59364,410.75102 Z M452.72164,410.75102 C465.6302,410.56412 465.6302,430.83654 452.72164,430.68702 C439.838,430.86146 439.838,410.58904 452.74656,410.77594 L452.72164,410.75102 Z M431.53964,471.80502 C444.4482,471.61812 444.4482,491.89054 431.53964,491.74102 C418.656,491.91546 418.656,471.64304 431.56456,471.82994 L431.53964,471.80502 Z M360.51764,378.35502 C347.60908,378.54192 347.60908,358.2695 360.51764,358.41902 C373.45112,358.25704 373.45112,378.52946 360.54256,378.34256 L360.51764,378.35502 Z M354.37486,294.1628 C384.77726,294.68612 384.77726,339.91592 354.37486,340.42678 C323.96,339.891 323.96,294.67366 354.39978,294.15034 L354.37486,294.1628 Z M310.67764,372.1624 C323.5862,371.9755 323.5862,392.24792 310.67764,392.0984 C297.794,392.23546 297.794,371.96304 310.70256,372.14994 L310.67764,372.1624 Z M188.65686,270.4888 C219.05926,271.01212 219.05926,316.24192 188.65686,316.75278 C158.242,316.217 158.242,270.99966 188.68178,270.47634 L188.65686,270.4888 Z M120.06456,202.65656 C107.156,202.84346 107.156,182.57104 120.06456,182.72056 C132.97312,182.57104 132.97312,202.84346 120.06456,202.65656 Z M125.13578,146.03832 C94.72092,145.515 94.73338,100.29766 125.13578,99.77434 C155.53818,100.29766 155.53818,145.52746 125.13578,146.03832 L125.13578,146.03832 Z M222.23656,75.56456 C209.328,75.75146 209.328,55.47904 222.23656,55.62856 C235.14512,55.47904 235.14512,75.75146 222.23656,75.56456 L222.23656,75.56456 Z M303.22656,89.27056 C290.318,89.45746 290.318,69.18504 303.22656,69.33456 C316.13512,69.18504 316.13512,89.45746 303.22656,89.27056 L303.22656,89.27056 Z M378.07378,116.68256 C328.93154,115.83528 328.944,42.74492 378.07378,41.92256 C427.20356,42.72 427.20356,115.84774 378.07378,116.68256 L378.07378,116.68256 Z M431.56456,145.34056 C418.656,145.52746 418.656,125.25504 431.56456,125.40456 C444.47312,125.25504 444.47312,145.52746 431.56456,145.34056 L431.56456,145.34056 Z" id="Shape" fill="#DDDDDD"></path>
            <path d="M55.35978,215.11656 C55.67128,191.38026 32.49568,173.07652 9.51944,178.70844 C7.79996,203.92748 10.98972,232.112 17.51876,252.4841 C27.5100288,252.607335 37.134739,248.725281 44.2445102,241.70447 C51.3542814,234.683658 55.3572093,225.108588 55.35978,215.11656 L55.35978,215.11656 Z" id="Path" fill="#2D2D2D"></path>
            <path d="M151.30178,330.99456 C136.176655,330.987802 122.53808,340.096579 116.7502,354.07048 C138.3683,363.76436 162.19182,371.58924 187.22396,378.69144 C194.28878,355.36632 175.76076,330.546 151.30178,330.99456 Z" id="Path" fill="#2D2D2D"></path>
            <path d="M239.767771,293.61456 C244.22846,356.99858 337.95258,330.90734 309.21982,274.4137 C292.72278,270.18976 274.03278,265.6917 258.13382,261.40546 C246.743252,268.135128 239.75848,280.384541 239.767771,293.61456 L239.767771,293.61456 Z" id="Path" fill="#2D2D2D"></path>
            <path d="M421.68378,451.85656 C422.38154,414.25228 370.08692,400.62104 352.08222,432.89244 C367.90642,445.04094 375.4198,463.81816 374.34824,487.87842 C397.61106,494.65666 422.05758,476.16602 421.68378,451.85656 Z" id="Path" fill="#2D2D2D"></path>
            <path d="M137.59578,485.49856 C138.948563,485.493196 140.300178,485.418337 141.64528,485.27428 C138.996121,473.106971 137.708976,460.682677 137.8076,448.2307 L100.21578,448.2307 C100.277582,468.831297 116.99509,485.49856 137.59578,485.49856 L137.59578,485.49856 Z" id="Path" fill="#2D2D2D"></path>
            <path d="M293.34578,618.82056 C324.60792,619.87966 342.5254,579.64632 321.64244,557.03142 C304.50994,563.88442 281.8452,567.52274 258.88142,566.99942 C248.31534,590.72326 267.12994,619.40618 293.34578,618.82056 Z" id="Path" fill="#2D2D2D"></path>
            <path d="M167.49978,606.36056 C143.61396,606.02414 125.26038,629.5237 131.17888,652.58716 C151.557315,660.586678 172.748754,666.335775 194.376,669.73212 C217.21518,647.72776 199.75872,605.2267 167.49978,606.36056 Z" id="Path" fill="#2D2D2D"></path>
            <path d="M459.06378,522.87856 C404.87524,524.6105 413.26082,606.13628 466.627,596.86604 C478.424655,583.668829 488.215191,568.806694 495.68372,552.75764 C492.121241,535.365528 476.817,522.87856 459.06378,522.87856 Z" id="Path" fill="#2D2D2D"></path>
            <path d="M378.07378,41.92256 C328.93154,42.75738 328.944,115.84774 378.07378,116.68256 C427.20356,115.83528 427.20356,42.72 378.07378,41.92256 Z" id="Path" fill="#2D2D2D"></path>
            <path d="M162.51578,75.56456 C199.68396,76.27478 213.67654,24.86482 182.17766,6.38664 C163.857258,9.85873788 145.935566,15.1772179 128.68688,22.26068 C116.8125,46.0842 135.67694,76.21248 162.51578,75.56456 Z" id="Path" fill="#2D2D2D"></path>
            <path d="M125.13578,99.77434 C94.72092,100.29766 94.73338,145.52746 125.13578,146.03832 C155.53818,145.515 155.53818,100.29766 125.13578,99.77434 Z" id="Path" fill="#2D2D2D"></path>
            <path d="M188.68178,316.74032 C219.08418,316.217 219.08418,270.99966 188.68178,270.47634 C158.242,270.99966 158.242,316.22946 188.68178,316.74032 Z" id="Path" fill="#2D2D2D"></path>
            <path d="M239.76778,358.94234 C232.818638,358.967206 226.246563,362.105743 221.859099,367.494745 C217.471635,372.883748 215.730843,379.95568 217.1155,386.76552 C230.24834,390.17956 244.26584,393.68082 257.32392,397.10732 C270.18264,383.08982 259.05586,358.29442 239.76778,358.94234 Z" id="Path" fill="#2D2D2D"></path>
            <path d="M354.39978,340.41432 C384.80218,339.891 384.80218,294.67366 354.39978,294.15034 C323.96,294.67366 323.96,339.90346 354.39978,340.41432 Z" id="Path" fill="#2D2D2D"></path>
            <path d="M370.59778,574.50034 C340.18292,575.02366 340.19538,620.25346 370.59778,620.76432 C401.00018,620.241 401.00018,575.02366 370.59778,574.50034 Z" id="Path" fill="#2D2D2D"></path>
            <path d="M139.37756,551.53656 C140.16254,583.58368 188.23322,580.94216 185.47956,549.04456 C176.396437,543.638553 168.332879,536.679939 161.65604,528.48556 C149.242186,528.934198 139.402938,539.114627 139.37756,551.53656 L139.37756,551.53656 Z" id="Path" fill="#2D2D2D"></path>
            <path d="M68.53,583.93256 C69.24022,563.8595 42.72534,553.11898 29.16886,567.44798 C36.868874,580.71899 46.1715379,592.992815 56.86744,603.99316 C64.0768917,599.887398 68.5291379,592.229154 68.53,583.93256 L68.53,583.93256 Z" id="Path" fill="#2D2D2D"></path>
            <path d="M27.4120011,471.79256 C27.3947692,464.9145 24.3233337,458.399431 19.0284142,454.009461 C13.7334947,449.619492 6.76218819,447.808215 -5.05906428e-14,449.06552 C0.00164528185,464.417552 1.2517655,479.744026 3.738,494.8934 C9.96341862,495.047908 15.9875369,492.682458 20.444551,488.33335 C24.9015651,483.984243 27.4139171,478.019895 27.4120011,471.79256 Z" id="Path" fill="#2D2D2D"></path>
            <path d="M263.44178,93.54434 C254.632271,93.5456692 246.590416,98.5573299 242.70834,106.46536 C257.272065,106.13735 271.812869,107.788857 285.93208,111.3746 C283.48048,100.932785 274.167535,93.5495028 263.44178,93.54434 L263.44178,93.54434 Z" id="Path" fill="#2D2D2D"></path>
            <path d="M216.629518,19.49456 C216.629518,25.6300523 219.067726,31.5140689 223.407343,35.8513486 C227.746959,40.1886282 233.632289,42.6236258 239.76778,42.62032 C262.0338,43.41776 271.29158,12.01856 252.8134,0.356 C243.8422,0.2314 234.6841,0.43076 225.92472,0.95408 C220.06401,5.31263552 216.615677,12.1908122 216.629518,19.49456 L216.629518,19.49456 Z" id="Path" fill="#2D2D2D"></path>
            <path d="M370.062,159.04656 C370.6227,140.85496 348.3816,129.3793 333.8657,139.95784 C343.5222,151.17184 350.23814,164.87784 353.90138,181.07584 C363.511331,178.036359 370.048154,169.125717 370.062,159.04656 L370.062,159.04656 Z" id="Path" fill="#2D2D2D"></path>
            <path d="M459.06378,102.42832 C461.941691,102.420384 464.793255,101.879643 467.47428,100.83344 C460.383555,87.6531032 451.534941,75.4972618 441.17122,64.69944 C428.78598,78.854 439.98752,103.06378 459.06378,102.42832 Z" id="Path" fill="#2D2D2D"></path>
            <path d="M415.45378,172.75256 C405.128829,172.75256 395.263685,177.023037 388.197789,184.551497 C381.131892,192.079958 377.494626,202.195737 378.14854,212.49996 L452.74656,212.49996 C453.400337,202.197898 449.764735,192.084098 442.701575,184.556039 C435.638415,177.02798 425.776565,172.755923 415.45378,172.75256 L415.45378,172.75256 Z" id="Path" fill="#2D2D2D"></path>
            <path d="M459.063744,135.37256 C459.066481,153.405388 471.943018,168.865618 489.678,172.12956 C486.455013,148.314347 480.254087,126.908067 471.07522,107.91072 C463.405734,114.981099 459.049273,124.941306 459.063744,135.37256 L459.063744,135.37256 Z" id="Path" fill="#2D2D2D"></path>
            <path d="M310.70256,392.04856 C323.61112,392.23546 323.61112,371.96304 310.70256,372.11256 C297.794,371.96304 297.794,392.23546 310.70256,392.04856 Z" id="Path" fill="#2D2D2D"></path>
            <path d="M360.54256,358.44394 C347.634,358.25704 347.634,378.52946 360.54256,378.37994 C373.45112,378.52946 373.45112,358.25704 360.54256,358.44394 Z" id="Path" fill="#2D2D2D"></path>
            <path d="M492.61856,430.67456 C505.52712,430.86146 505.52712,410.58904 492.61856,410.73856 C479.71,410.58904 479.71,430.86146 492.61856,430.67456 Z" id="Path" fill="#2D2D2D"></path>
            <path d="M431.56456,491.72856 C444.47312,491.91546 444.47312,471.64304 431.56456,471.79256 C418.656,471.64304 418.656,491.91546 431.56456,491.72856 Z" id="Path" fill="#2D2D2D"></path>
            <path d="M452.74656,430.67456 C465.65512,430.86146 465.65512,410.58904 452.74656,410.73856 C439.838,410.58904 439.838,430.86146 452.74656,430.67456 Z" id="Path" fill="#2D2D2D"></path>
            <path d="M376.74056,545.30656 C389.64912,545.49346 389.64912,525.22104 376.74056,525.37056 C363.832,525.22104 363.832,545.49346 376.74056,545.30656 Z" id="Path" fill="#2D2D2D"></path>
            <path d="M277.06056,657.48394 C268.17658,657.17244 263.70344,669.13404 270.35708,674.76596 C275.06696,674.66628 279.722847,674.47938 284.32474,674.20526 C290.318,668.29922 285.55828,657.1849 277.06056,657.48394 Z" id="Path" fill="#2D2D2D"></path>
            <path d="M55.27256,461.82456 C58.5586367,461.811437 61.6271216,460.179592 63.4751346,457.462366 C65.3231476,454.745139 65.7132262,451.291684 64.51788,448.2307 L46.02724,448.2307 C44.8318938,451.291684 45.2219724,454.745139 47.0699854,457.462366 C48.9179984,460.179592 51.9864833,461.811437 55.27256,461.82456 L55.27256,461.82456 Z" id="Path" fill="#2D2D2D"></path>
            <path d="M32.81964,269.95302 C32.8085859,266.844545 31.3480215,263.919173 28.8700512,262.042367 C26.3920808,260.165561 23.1804088,259.552198 20.1852,260.38374 C22.4516716,266.544996 25.1282548,272.547536 28.19698,278.35106 C31.0711467,276.525042 32.814328,273.358185 32.81964,269.95302 L32.81964,269.95302 Z" id="Path" fill="#2D2D2D"></path>
            <path d="M100.12856,44.41456 C103.343337,44.4042333 106.355797,42.8440889 108.219211,40.2244354 C110.082625,37.604782 110.568224,34.2472293 109.5234,31.20696 C103.708733,34.27212 98.08512,37.5407933 92.65256,41.01298 C94.5399069,43.1685451 97.2635132,44.407786 100.12856,44.41456 L100.12856,44.41456 Z" id="Path" fill="#2D2D2D"></path>
            <path d="M194.82456,106.75194 C191.782636,106.764541 188.912961,108.165465 187.031971,110.556142 C185.150981,112.946819 184.464583,116.06555 185.16806,119.02504 C191.060726,116.096053 197.20819,113.71047 203.5341,111.89792 C201.781681,108.727414 198.447135,106.757217 194.82456,106.75194 Z" id="Path" fill="#2D2D2D"></path>
            <path d="M222.23656,55.66594 C209.328,55.47904 209.328,75.75146 222.23656,75.60194 C235.14512,75.75146 235.14512,55.47904 222.23656,55.66594 Z" id="Path" fill="#2D2D2D"></path>
            <path d="M65.24056,116.71994 C52.332,116.53304 52.332,136.80546 65.24056,136.65594 C78.14912,136.80546 78.14912,116.53304 65.24056,116.71994 Z" id="Path" fill="#2D2D2D"></path>
            <path d="M120.06456,182.75794 C107.156,182.57104 107.156,202.84346 120.06456,202.69394 C132.97312,202.84346 132.97312,182.57104 120.06456,182.75794 Z" id="Path" fill="#2D2D2D"></path>
            <path d="M486.41348,471.80502 C486.22658,484.71358 506.48654,484.71358 506.34948,471.80502 C506.48654,458.884 486.21412,458.884 486.41348,471.80502 Z" id="Path" fill="#2D2D2D"></path>
            <path d="M431.56456,125.44194 C418.656,125.25504 418.656,145.52746 431.56456,145.37794 C444.47312,145.52746 444.47312,125.25504 431.56456,125.44194 Z" id="Path" fill="#2D2D2D"></path>
            <path d="M360.54256,29.46256 C366.023496,29.4626671 370.476304,25.0376892 370.51056,19.55686 C364.695893,17.3971267 358.71094,15.42014 352.5557,13.6259 C347.634,19.80606 352.618,29.71176 360.54256,29.46256 Z" id="Path" fill="#2D2D2D"></path>
            <path d="M303.22656,69.37194 C290.318,69.18504 290.318,89.45746 303.22656,89.30794 C316.13512,89.45746 316.13512,69.18504 303.22656,69.37194 Z" id="Path" fill="#2D2D2D"></path>
        </g>
    </g>
</svg>